<?xml version="1.0" encoding="UTF-8" standalone="no"?>
<!DOCTYPE svg PUBLIC "-//W3C//DTD SVG 1.1//EN" "http://www.w3.org/Graphics/SVG/1.1/DTD/svg11.dtd">
<svg xmlns="http://www.w3.org/2000/svg" version="1.1" viewBox="0.00 0.00 512.00 512.00">
<path fill="#FFFFFF" d="
  M 319.26 372.19
  Q 319.03 371.96 318.77 372.14
  C 289.53 391.22 255.67 401.95 220.76 402.40
  Q 146.48 403.35 91.93 354.44
  C 61.66 327.29 40.58 289.09 33.87 248.94
  Q 23.36 186.07 52.46 130.02
  C 71.11 94.09 101.90 65.19 138.29 48.29
  C 208.08 15.90 291.68 30.09 346.69 83.81
  Q 372.26 108.77 387.18 142.51
  C 405.69 184.39 406.97 233.13 392.88 276.17
  Q 386.08 296.92 372.21 318.47
  Q 371.91 318.94 372.31 319.34
  Q 444.79 391.53 469.62 416.62
  C 493.62 440.88 476.42 482.35 441.58 480.88
  C 425.56 480.21 416.72 469.71 405.75 458.80
  Q 362.32 415.59 319.26 372.19
  Z
  M 327.53 216.78
  A 110.75 110.75 0.0 0 0 216.78 106.03
  A 110.75 110.75 0.0 0 0 106.03 216.78
  A 110.75 110.75 0.0 0 0 216.78 327.53
  A 110.75 110.75 0.0 0 0 327.53 216.78
  Z"
/>
</svg>
